# xmcd CD database file
#
# Track frame offsets:
#	150
#	13855
#	35755
#	55287
#	82330
#	106134
#	122740
#	142938
#	162423
#	182813
#	202744
#	223378
#	245308
#	261559
#	282889
#
# Disc length: 4151 seconds
#
# Revision: 8
# Processed by: cddbd v1.5.2PL0 Copyright (c) Steve Scherf et al.
# Submitted via: jetAudio 7
#
DISCID=e410350f
DTITLE=§õ¨q­^ - Sweet Holiday in Lombok CD1
DYEAR=2003
DGENRE=Pop
TTITLE0=01. Intro
TTITLE1=02. I Believe
TTITLE2=03. Goodbye My Love (Orchestral)
TTITLE3=04. Never Again
TTITLE4=05. Merely Goodbye
TTITLE5=06. Kiss
TTITLE6=07. I Will Hold On
TTITLE7=08. And I Love You
TTITLE8=09. Cha - La - Lee (Orchestral)
TTITLE9=10. Love is Over
TTITLE10=11. Ra Ra Ra
TTITLE11=12. Phantom Of Love
TTITLE12=13. Goodbye
TTITLE13=14. I Thank Her
TTITLE14=15. How Good That Would Be
EXTD=
EXTT0=
EXTT1=
EXTT2=
EXTT3=
EXTT4=
EXTT5=
EXTT6=
EXTT7=
EXTT8=
EXTT9=
EXTT10=
EXTT11=
EXTT12=
EXTT13=
EXTT14=
PLAYORDER=
